<?xml version="1.0" standalone="no"?>
<!DOCTYPE svg PUBLIC "-//W3C//DTD SVG 20010904//EN"
 "http://www.w3.org/TR/2001/REC-SVG-20010904/DTD/svg10.dtd">
<svg version="1.0" xmlns="http://www.w3.org/2000/svg"
 width="300.000000pt" height="300.000000pt" viewBox="0 0 300.000000 300.000000"
 preserveAspectRatio="xMidYMid meet">
<metadata>
Created by potrace 1.10, written by Peter Selinger 2001-2011
</metadata>
<g transform="translate(0.000000,300.000000) scale(0.100000,-0.100000)"
fill="#000000" stroke="none">
<path d="M871 2284 c-21 -26 -21 -36 -21 -505 l0 -479 29 -32 29 -33 586 0
586 0 27 28 28 27 3 411 3 410 -30 29 -29 30 -310 0 -309 0 -70 70 -70 70
-216 0 -216 0 -20 -26z m495 -104 l72 -70 309 0 c324 0 333 -1 333 -44 0 -21
-2 -21 -585 -21 l-585 0 0 96 c0 53 3 99 7 102 3 4 90 7 191 7 l185 0 73 -70z
m-456 -174 c0 -8 -6 -19 -13 -25 -11 -8 -14 -7 -14 7 -2 27 6 44 17 37 5 -3
10 -12 10 -19z m737 -10 c-10 -20 -15 -22 -42 -15 -39 12 -142 11 -183 0 -25
-8 -32 -7 -32 4 0 21 -87 -31 -138 -83 -24 -24 -56 -69 -70 -100 -24 -50 -27
-69 -27 -162 0 -95 3 -110 28 -160 31 -61 84 -120 136 -152 65 -41 313 -43
387 -5 17 8 50 35 74 59 167 166 128 464 -77 580 -29 16 -53 31 -53 31 0 1 91
1 202 -1 174 -3 205 -5 216 -19 9 -13 12 -95 12 -332 0 -279 -2 -317 -17 -333
-15 -16 -35 -18 -215 -18 -130 0 -197 -3 -193 -10 7 -12 16 -11 -130 -11 -158
-1 -157 -1 -150 11 4 7 -69 10 -211 10 -188 0 -220 2 -236 17 -17 15 -18 39
-18 331 0 279 2 318 17 334 15 16 35 18 219 18 166 0 206 3 216 15 10 11 43
14 155 15 l141 0 -11 -24z m8 -68 c101 -53 165 -148 173 -259 11 -161 -78
-289 -233 -334 -71 -21 -136 -15 -210 19 -225 103 -248 414 -41 554 65 43 98
52 186 48 57 -2 87 -9 125 -28z"/>
<path d="M1926 1885 c-20 -21 -5 -55 25 -55 24 0 36 27 22 48 -14 23 -29 25
-47 7z"/>
<path d="M1920 1441 c-7 -15 -6 -23 6 -35 8 -9 19 -16 24 -16 5 0 16 7 24 16
12 12 13 20 6 35 -14 25 -46 25 -60 0z"/>
<path d="M1503 1933 c-9 -3 -13 -28 -13 -73 l0 -68 -42 -21 -41 -20 -50 41
c-39 33 -52 39 -66 31 -30 -19 -22 -39 31 -78 l54 -38 -2 -65 -1 -65 -52 -39
c-33 -25 -51 -46 -49 -56 6 -31 43 -24 95 16 49 39 49 39 72 21 13 -11 29 -19
37 -19 11 0 14 -17 14 -70 0 -75 14 -96 46 -69 13 11 15 26 12 74 l-5 60 38
18 39 19 50 -37 c51 -38 82 -42 88 -13 2 10 -17 31 -49 56 l-52 40 -1 64 -1
64 53 38 c53 38 61 53 40 74 -17 17 -21 16 -76 -27 l-50 -40 -38 20 -39 19 3
61 c5 72 -9 97 -45 82z m72 -226 c60 -51 20 -151 -61 -151 -74 0 -113 96 -59
149 32 33 84 33 120 2z"/>
<path d="M560 910 l0 -120 25 0 c23 0 25 3 25 50 l0 49 50 -6 c49 -6 50 -5 50
21 0 25 -3 26 -50 26 -48 0 -50 1 -50 28 0 29 0 29 55 24 54 -4 55 -4 55 22 0
26 0 26 -80 26 l-80 0 0 -120z"/>
<path d="M780 910 l0 -120 25 0 25 0 0 120 0 120 -25 0 -25 0 0 -120z"/>
<path d="M905 910 l0 -120 78 0 c70 0 77 2 77 20 0 18 -7 20 -56 20 l-57 0 6
100 5 100 -26 0 -27 0 0 -120z"/>
<path d="M1110 910 l0 -120 80 0 c73 0 80 2 80 20 0 18 -7 20 -55 20 -54 0
-55 0 -55 30 0 29 2 30 45 30 38 0 45 3 45 20 0 17 -7 20 -45 20 -43 0 -45 1
-45 28 0 29 0 29 55 24 54 -4 55 -4 55 22 0 26 0 26 -80 26 l-80 0 0 -120z"/>
<path d="M1390 1023 c0 -5 19 -59 42 -120 40 -105 45 -113 70 -113 23 0 29 7
46 53 11 28 32 82 46 120 l25 67 -28 0 c-26 0 -29 -6 -59 -92 -17 -51 -33 -86
-35 -78 -3 8 -17 50 -32 93 -24 67 -30 77 -51 77 -13 0 -24 -3 -24 -7z"/>
<path d="M1707 1023 c-9 -14 -87 -217 -87 -225 0 -5 11 -8 25 -8 18 0 26 7 31
25 5 22 11 25 54 25 43 0 49 -3 54 -25 5 -19 13 -25 35 -25 l29 0 -47 118
c-37 92 -52 118 -68 120 -12 2 -23 -1 -26 -5z m36 -80 c3 -16 9 -36 12 -45 6
-15 2 -18 -25 -18 -27 0 -31 3 -25 18 3 9 9 29 12 45 3 15 9 27 13 27 4 0 10
-12 13 -27z"/>
<path d="M1878 933 c3 -87 7 -101 28 -123 35 -36 108 -34 141 4 21 24 23 37
23 122 0 94 0 94 -25 94 -25 0 -25 -1 -25 -88 0 -93 -8 -112 -45 -112 -37 0
-45 19 -45 112 l0 88 -28 0 -28 0 4 -97z"/>
<path d="M2140 1028 c-1 -2 -2 -56 -3 -121 l-2 -117 78 0 c70 0 77 2 77 20 0
17 -7 20 -53 20 l-53 0 4 100 4 100 -26 0 c-14 0 -26 -1 -26 -2z"/>
<path d="M2280 1004 c0 -25 2 -26 35 -21 l35 6 0 -100 0 -99 26 0 25 0 -2 97
-2 97 34 0 c27 1 34 5 34 21 0 18 -8 20 -92 23 l-93 3 0 -27z"/>
</g>
</svg>
